<?xml version="1.0" standalone="no"?>
<!DOCTYPE svg PUBLIC "-//W3C//DTD SVG 20010904//EN"
 "http://www.w3.org/TR/2001/REC-SVG-20010904/DTD/svg10.dtd">
<svg version="1.0" xmlns="http://www.w3.org/2000/svg"
 width="327.000000pt" height="327.000000pt" viewBox="0 0 327.000000 327.000000"
 preserveAspectRatio="xMidYMid meet">
<metadata>
Created by potrace 1.14, written by Peter Selinger 2001-2017
</metadata>
<g transform="translate(0.000000,327.000000) scale(0.100000,-0.100000)"
fill="#000000" stroke="none">
<path d="M1253 2853 c-86 -14 -140 -34 -223 -80 -78 -44 -202 -165 -249 -245
-155 -265 -147 -591 21 -843 95 -141 265 -267 425 -315 23 -7 40 -16 38 -21
-3 -4 17 -1 45 6 27 7 72 16 100 20 27 4 50 10 50 13 0 4 -29 22 -65 41 -276
142 -448 417 -446 711 0 96 1 105 22 195 28 124 119 285 213 377 59 59 168
122 229 133 20 4 40 11 42 16 7 11 -119 7 -202 -8z"/>
<path d="M1810 2852 c73 -23 114 -46 166 -94 44 -40 92 -113 99 -148 2 -11 8
-27 13 -37 7 -12 10 33 9 137 l-2 155 -170 2 -170 2 55 -17z"/>
<path d="M1360 2556 c0 -2 9 -6 20 -9 11 -3 20 -1 20 4 0 5 -9 9 -20 9 -11 0
-20 -2 -20 -4z"/>
<path d="M1440 2538 c0 -16 3 -19 9 -10 6 10 10 2 15 -25 10 -57 16 -73 27
-73 6 0 6 8 -1 20 -6 11 -9 20 -6 20 2 0 -2 19 -9 42 -13 47 -35 63 -35 26z"/>
<path d="M1510 2495 c0 -36 4 -65 9 -65 6 0 8 9 6 20 -3 15 2 20 19 20 31 0
59 32 49 56 -8 23 -23 34 -43 33 -8 0 -5 -4 8 -9 26 -11 31 -55 6 -64 -36 -14
-43 -7 -39 34 2 22 0 40 -5 40 -6 0 -10 -29 -10 -65z"/>
<path d="M1610 2495 c0 -53 3 -65 16 -65 13 0 14 3 5 14 -17 20 -9 60 14 68
19 6 18 6 -2 7 -24 1 -32 26 -10 34 7 3 5 6 -5 6 -15 1 -18 -8 -18 -64z"/>
<path d="M1658 2553 c7 -3 16 -2 19 1 4 3 -2 6 -13 5 -11 0 -14 -3 -6 -6z"/>
<path d="M1690 2498 l0 -68 33 1 c28 2 28 3 6 6 -24 4 -26 7 -24 53 1 27 -2
55 -6 62 -5 8 -9 -15 -9 -54z"/>
<path d="M1771 2495 c0 -60 2 -65 22 -65 17 0 19 2 8 9 -10 7 -14 27 -13 65 0
31 -3 56 -8 56 -5 0 -9 -29 -9 -65z"/>
<path d="M1859 2558 c-5 -15 -3 -121 3 -124 4 -3 8 24 8 60 0 36 -2 66 -5 66
-3 0 -5 -1 -6 -2z"/>
<path d="M1310 2531 c-27 -52 9 -108 62 -98 21 4 20 4 -4 6 -40 2 -65 43 -51
82 13 33 9 39 -7 10z"/>
<path d="M1422 2473 c-6 -20 -10 -39 -8 -41 2 -2 9 13 16 33 7 20 10 38 8 41
-3 2 -10 -13 -16 -33z"/>
<path d="M1658 2433 c7 -3 16 -2 19 1 4 3 -2 6 -13 5 -11 0 -14 -3 -6 -6z"/>
<path d="M1299 2373 c-3 -44 1 -104 6 -113 3 -6 12 -10 18 -9 9 0 9 2 0 6 -9
3 -13 26 -13 64 0 57 1 59 25 59 26 0 75 -39 75 -60 0 -6 -11 -22 -25 -35 -13
-14 -20 -25 -15 -25 13 0 50 41 50 56 0 26 -13 45 -41 59 -39 21 -79 19 -80
-2z"/>
<path d="M1456 2369 c-45 -36 -30 -95 31 -113 30 -10 76 31 76 69 0 31 -33 65
-63 65 -9 0 -29 -9 -44 -21z m74 -9 c28 -28 26 -66 -6 -86 -24 -16 -27 -16
-52 3 -34 25 -38 68 -8 88 28 20 42 19 66 -5z"/>
<path d="M1581 2318 c1 -40 4 -63 6 -50 6 28 20 28 50 0 13 -12 23 -17 23 -11
0 6 -7 16 -15 23 -14 12 -13 15 4 32 32 29 3 78 -46 78 -22 0 -23 -3 -22 -72z
m57 50 c18 -18 14 -46 -9 -58 -11 -7 -24 -9 -27 -5 -8 7 -11 57 -5 68 6 11 27
9 41 -5z"/>
<path d="M1701 2354 c-19 -74 -21 -99 -2 -44 l18 55 11 -40 c7 -22 12 -46 12
-52 0 -7 5 -13 10 -13 13 0 13 -4 -6 61 -21 72 -31 79 -43 33z"/>
<path d="M1768 2383 c20 -4 22 -10 22 -71 0 -37 4 -61 8 -55 5 7 7 37 6 67 -2
49 1 55 20 59 11 2 -1 4 -29 4 -27 0 -40 -2 -27 -4z"/>
<path d="M1859 2383 c-5 -38 -3 -123 3 -123 5 0 8 29 8 65 0 36 -2 65 -5 65
-3 0 -5 -3 -6 -7z"/>
<path d="M1778 2087 c6 -7 23 -48 38 -92 27 -78 28 -86 31 -334 1 -149 -1
-259 -7 -266 -7 -8 5 -15 40 -24 61 -16 101 -20 95 -11 -2 3 21 15 51 25 30
10 58 23 62 29 4 6 8 110 8 231 2 267 12 328 72 448 2 4 -87 7 -198 7 -162 0
-200 -3 -192 -13z"/>
<path d="M1596 1618 c-10 -57 -20 -112 -22 -123 -17 -83 -16 -102 7 -129 12
-14 26 -26 30 -26 4 0 8 86 8 190 0 105 -1 190 -3 190 -1 0 -11 -46 -20 -102z"/>
<path d="M1641 1528 c-1 -104 2 -188 5 -188 4 0 18 12 31 26 21 22 23 33 18
68 -4 22 -9 55 -11 71 -3 17 -7 37 -9 45 -3 8 -7 33 -10 55 -17 122 -23 102
-24 -77z"/>
<path d="M1400 1554 c0 -7 127 -134 135 -134 3 0 5 9 5 19 0 12 -25 38 -70 70
-38 28 -70 49 -70 45z"/>
<path d="M1400 1498 c18 -24 42 -57 53 -75 15 -22 29 -32 45 -30 19 1 12 11
-50 74 -40 40 -74 73 -76 73 -2 0 11 -19 28 -42z"/>
<path d="M1763 1487 c-57 -35 -57 -35 -44 -56 7 -11 20 -3 60 38 29 28 48 51
44 51 -4 -1 -31 -15 -60 -33z"/>
<path d="M1780 1430 c-39 -33 -42 -39 -23 -40 19 0 40 21 67 68 11 19 4 15
-44 -28z"/>
<path d="M1515 1373 c-42 -9 -172 -33 -209 -39 -85 -13 -96 -17 -77 -29 6 -3
11 -2 11 2 0 5 81 8 180 8 l180 -1 -32 33 c-18 18 -32 32 -32 32 -1 -1 -10 -3
-21 -6z"/>
<path d="M1713 1371 c-5 -4 -18 -17 -30 -31 l-22 -25 172 1 c95 0 177 -4 184
-8 6 -5 14 -5 17 1 6 9 -8 14 -84 27 -19 3 -79 14 -132 23 -54 10 -101 15
-105 12z"/>
<path d="M1100 1315 c0 -2 6 -8 13 -14 10 -8 14 -7 14 2 0 8 -6 14 -14 14 -7
0 -13 -1 -13 -2z"/>
<path d="M2150 1310 c0 -5 5 -10 11 -10 5 0 7 5 4 10 -3 6 -8 10 -11 10 -2 0
-4 -4 -4 -10z"/>
<path d="M1242 1289 c-10 -3 4 -9 33 -13 28 -4 57 -9 65 -11 8 -2 57 -10 109
-20 l94 -16 28 30 c15 17 27 31 26 32 -10 4 -342 3 -355 -2z"/>
<path d="M1670 1288 c0 -5 10 -19 22 -33 24 -27 29 -28 143 -5 62 12 87 17
148 26 26 3 45 9 42 12 -9 9 -355 8 -355 0z"/>
<path d="M1585 1240 l-29 -30 18 -102 c44 -250 44 -250 45 -35 1 108 0 197 -2
197 -2 0 -16 -13 -32 -30z"/>
<path d="M1641 1079 c1 -188 2 -192 14 -129 8 36 16 81 19 100 3 19 8 46 11
60 19 90 17 104 -14 135 l-31 29 1 -195z"/>
<path d="M1424 1143 c-31 -41 -54 -76 -52 -77 1 -2 35 29 75 69 61 63 69 74
52 78 -16 4 -32 -10 -75 -70z"/>
<path d="M1754 1212 c-6 -4 19 -36 65 -82 l75 -75 -55 79 c-57 82 -66 91 -85
78z"/>
<path d="M1465 1119 l-70 -72 72 49 c53 36 72 55 73 72 0 12 -1 22 -3 22 -1 0
-34 -32 -72 -71z"/>
<path d="M1720 1168 c0 -13 11 -30 23 -38 12 -9 47 -33 77 -55 l55 -38 -75 76
c-41 43 -76 77 -77 77 -2 0 -3 -10 -3 -22z"/>
<path d="M1629 558 c-5 -18 -6 -38 -1 -34 7 8 12 36 6 36 -2 0 -4 -1 -5 -2z"/>
</g>
</svg>
