<svg width="50" height="58" viewBox="0 0 50 58" fill="none" xmlns="http://www.w3.org/2000/svg">
<path d="M33.2857 40.6C33.2857 49.6715 26.0443 57 17.1429 57C8.24139 57 1 49.6715 1 40.6C1 31.5284 8.24139 24.2 17.1429 24.2C26.0443 24.2 33.2857 31.5284 33.2857 40.6Z" fill="#010001" stroke="white" stroke-width="2"/>
<path d="M15.7145 30.45V30.45C10.9806 30.45 7.14307 34.2875 7.14307 39.0214V39.15" stroke="white" stroke-width="2" stroke-linecap="round" stroke-linejoin="round"/>
<path d="M49.0001 29.7249C49.0001 35.9936 43.9973 41.0499 37.8572 41.0499C31.7172 41.0499 26.7144 35.9936 26.7144 29.7249C26.7144 23.4562 31.7172 18.3999 37.8572 18.3999C43.9973 18.3999 49.0001 23.4562 49.0001 29.7249Z" fill="#010001" stroke="white" stroke-width="2"/>
<path d="M17.3927 5.8C17.3927 8.46505 15.268 10.6 12.6784 10.6C10.0888 10.6 7.96411 8.46505 7.96411 5.8C7.96411 3.13494 10.0888 1 12.6784 1C15.268 1 17.3927 3.13494 17.3927 5.8Z" fill="#010001" stroke="white" stroke-width="2"/>
<path d="M37.143 23.2V23.2C33.9871 23.2 31.4287 25.7583 31.4287 28.9142V29" stroke="white" stroke-width="2" stroke-linecap="round" stroke-linejoin="round"/>
</svg>
