<svg width="38" height="34" viewBox="0 0 38 34" fill="none" xmlns="http://www.w3.org/2000/svg">
<path d="M1 1L9.33333 7.06897L13.7778 26.3793H31.5556L33.5309 19.7586M18.2222 11.4828H36L33.5309 19.7586M33.5309 19.7586H18.2222M28.7778 33V33C29.6919 33 30.4444 32.259 30.4444 31.3448V31.3448C30.4444 30.4307 29.6919 29.6897 28.7778 29.6897V29.6897C27.8637 29.6897 27.1111 30.4307 27.1111 31.3448V31.3448C27.1111 32.259 27.8637 33 28.7778 33ZM17.1111 33V33C18.0252 33 18.7778 32.259 18.7778 31.3448V31.3448C18.7778 30.4307 18.0252 29.6897 17.1111 29.6897V29.6897C16.197 29.6897 15.4444 30.4307 15.4444 31.3448V31.3448C15.4444 32.259 16.197 33 17.1111 33Z" stroke="white" stroke-width="2" stroke-linecap="round"/>
</svg>
