<svg width="86" height="46" viewBox="0 0 86 46" fill="none" xmlns="http://www.w3.org/2000/svg">
<g clip-path="url(#clip0_1_2223)">
<path fill-rule="evenodd" clip-rule="evenodd" d="M46.9165 19.9534V0H56.6993V1.1796H48.8618C48.8574 3.18752 48.8531 5.19544 48.8487 7.20336H53.3906V8.38295H48.8618V18.7738H56.6993V19.9491H46.9165V19.9534Z" fill="#010001"/>
<path d="M85.9956 0.00439453H84.0156V19.9535H85.9956V0.00439453Z" fill="#010001"/>
<path fill-rule="evenodd" clip-rule="evenodd" d="M59.3916 19.9448V0.00439453H61.3325V18.7696H69.1787V19.9448H59.3916Z" fill="#010001"/>
<path fill-rule="evenodd" clip-rule="evenodd" d="M71.7058 19.9448V0.00439453H73.6467V18.7696H81.4929V19.9448H71.7058Z" fill="#010001"/>
<path fill-rule="evenodd" clip-rule="evenodd" d="M10.0954 19.9536C4.52883 19.9536 0 15.4911 0 9.98343C0 3.97268 5.48844 0.0912808 10.0954 0.00454564C12.527 -0.0431587 14.4462 0.97598 15.4797 1.65251V3.21375C12.996 1.73925 10.6686 1.14511 9.19661 1.17113C7.79845 1.19282 6.66515 1.60047 6.66515 1.60047C6.27002 1.74359 5.88357 1.92139 5.51449 2.13389C3.6387 3.20074 2.36211 5.01784 1.89751 7.25127C1.42856 9.49771 1.84974 11.8916 3.07856 13.9906C4.80673 16.9526 7.84621 18.7957 11.0029 18.7957C12.3012 18.7957 13.5214 18.4791 14.6373 17.8633C14.8327 17.7462 14.9803 17.6595 15.1236 17.5597L15.4666 17.3212V18.4314L15.3624 18.4921C15.1974 18.6049 15.0194 18.6916 14.8544 18.7914C13.3954 19.559 11.7541 19.9536 10.0954 19.9536Z" fill="#010001"/>
<path fill-rule="evenodd" clip-rule="evenodd" d="M32.2532 19.9535V0.00439453H38.0586C41.1545 0.0217416 43.877 2.09471 44.6933 5.05238C44.8453 5.6205 44.9278 6.22331 44.9278 6.82178C44.9278 7.07331 44.9148 7.32918 44.8801 7.57204C44.7802 8.4524 44.511 9.30241 44.0768 10.0874C42.8523 12.2731 40.5423 13.6305 38.0412 13.6305H34.2419V19.9578H32.2532V19.9535ZM36.9774 12.5506C39.0399 12.5506 40.9939 11.4881 42.0664 9.78379C42.5179 9.08123 42.7958 8.30495 42.8914 7.49831C42.9218 7.2728 42.9348 7.04729 42.9348 6.81744C42.9348 6.27535 42.8566 5.73759 42.7003 5.21284C41.9535 2.77992 39.6 1.08425 36.9774 1.08425H34.2375V12.555H36.9774V12.5506Z" fill="#010001"/>
<path fill-rule="evenodd" clip-rule="evenodd" d="M28.2064 19.9534L23.4431 2.5717L18.7015 19.9534H17.4727L22.8873 0H24.8586L30.2645 19.9534H28.2064Z" fill="#010001"/>
<path fill-rule="evenodd" clip-rule="evenodd" d="M0 45.9307V25.9772C1.08553 25.8948 2.56619 25.8298 4.32041 25.8905C5.21054 25.9209 6.41765 25.9599 7.66384 26.1507C9.04463 26.3632 11.5327 26.7405 13.695 28.2324C14.4853 28.7788 18.111 31.4546 18.137 35.8477C18.1587 39.5686 15.5839 42.0189 14.8761 42.6954C12.2752 45.1674 9.05766 45.6228 7.88529 45.7919C6.64344 45.9654 5.2062 45.9827 3.59962 46.0044C2.11461 46.0174 0.872766 45.974 0 45.9307ZM14.685 40.6095C15.1149 39.9676 16.4436 37.9857 16.2222 35.323C16.0181 32.9204 14.6677 31.3245 14.1119 30.6653C10.2083 26.064 2.81369 26.94 1.98869 27.0528V44.8638C7.412 45.5881 12.3881 44.0312 14.685 40.6095Z" fill="#010001"/>
<path d="M85.9956 25.9773H84.0156V45.9307H85.9956V25.9773Z" fill="#010001"/>
<path fill-rule="evenodd" clip-rule="evenodd" d="M68.6229 45.909L63.8466 28.5186L59.1137 45.909H57.8936L63.2952 25.9556H65.2708L70.6768 45.909H68.6229Z" fill="#010001"/>
<path fill-rule="evenodd" clip-rule="evenodd" d="M30.2647 45.909C24.6981 45.909 20.1736 41.4335 20.1736 35.9258C20.1736 30.4268 24.7024 25.9556 30.2647 25.9556C35.8313 25.9556 40.3514 30.4268 40.3514 35.9258C40.3558 41.4378 35.8313 45.909 30.2647 45.909ZM29.3745 27.3607C28.0458 27.3607 26.7997 27.6773 25.6794 28.2974C23.9469 29.2558 22.7007 30.8865 22.1623 32.8467C21.5544 35.1148 21.9408 37.6605 23.2391 39.8245C24.976 42.7085 28.0068 44.5039 31.1635 44.5039C32.4922 44.5039 33.7297 44.1873 34.8586 43.5628C36.5824 42.6 37.833 40.9868 38.3671 39.0179C38.9793 36.7367 38.5885 34.1954 37.2902 32.027C35.5621 29.1561 32.5182 27.3607 29.3745 27.3607Z" fill="#010001"/>
<path fill-rule="evenodd" clip-rule="evenodd" d="M52.9261 45.9307L46.8689 39.8766L44.7499 39.8636V45.9307H42.7612V25.9773H48.5753C51.6669 25.9903 54.3894 28.0589 55.2014 31.0123C55.3577 31.5804 55.4359 32.1789 55.4359 32.786C55.4359 33.0375 55.4272 33.2891 55.3881 33.5363C55.2969 34.421 55.019 35.2666 54.5805 36.0559C53.508 37.9728 51.5366 39.2825 49.3569 39.5427L55.7007 45.9264H52.9261V45.9307ZM47.4855 38.6797C49.5827 38.6797 51.4845 37.6345 52.5831 35.8825C53.0347 35.1625 53.3082 34.3863 53.4081 33.5623C53.4428 33.3368 53.4602 33.0983 53.4602 32.8684C53.4602 32.3133 53.3734 31.7625 53.217 31.2465C52.4702 28.7788 50.1168 27.0528 47.4898 27.0528H44.7543V38.6797H47.4855Z" fill="#010001"/>
<path fill-rule="evenodd" clip-rule="evenodd" d="M74.1938 45.9307V27.1526H68.853V25.9773H81.5103V27.1526H76.1782V45.9307H74.1938Z" fill="#010001"/>
</g>
<defs>
<clipPath id="clip0_1_2223">
<rect width="86" height="46" fill="white"/>
</clipPath>
</defs>
</svg>
