<svg width="38" height="50" viewBox="0 0 38 50" fill="none" xmlns="http://www.w3.org/2000/svg">
<path d="M19 49.1666C28.9503 49.1666 37.1248 41.2812 37.1248 31.1601C37.1248 28.6754 36.9985 26.0119 35.6212 21.8723C34.244 17.7328 33.9665 17.1984 32.5103 14.642C31.8881 19.8589 28.5591 22.0332 27.7134 22.6831C27.7134 22.007 25.6996 14.5308 22.6463 10.0575C19.6489 5.66658 15.5724 2.78582 13.1822 0.833252C13.1822 4.54256 12.139 10.0575 10.6449 12.8675C9.15075 15.6775 8.87018 15.7799 7.00391 17.871C5.13776 19.9621 4.28117 20.608 2.72061 23.1452C1.16012 25.6826 0.875 29.0621 0.875 31.5468C0.875 41.6679 9.04974 49.1666 19 49.1666Z" fill="#010001" stroke="white" stroke-width="1.5" stroke-linejoin="round"/>
</svg>
