<svg width="50" height="50" viewBox="0 0 50 50" fill="none" xmlns="http://www.w3.org/2000/svg">
<path d="M33.4583 47.9583C33.4583 47.9583 17.75 49.1667 9.29165 39.5C0.833313 29.8333 0.833313 0.833333 0.833313 0.833333C0.833313 0.833333 29.8333 -0.375 39.5 6.875C49.1666 14.125 46.75 34.6667 46.75 34.6667" fill="#010001"/>
<path d="M49.1666 49.1667C49.1666 49.1667 35.6583 38.9581 27.4166 29.8333C19.175 20.7086 15.3333 11.7083 15.3333 11.7083" fill="#010001"/>
<path d="M27.4166 29.8333L28.625 14.125Z" fill="#010001"/>
<path d="M27.4166 29.8333L15.3333 28.625Z" fill="#010001"/>
<path d="M33.4583 47.9583C33.4583 47.9583 17.75 49.1667 9.29165 39.5C0.833313 29.8333 0.833313 0.833333 0.833313 0.833333C0.833313 0.833333 29.8333 -0.375 39.5 6.875C49.1666 14.125 46.75 34.6667 46.75 34.6667M49.1666 49.1667C49.1666 49.1667 35.6583 38.9581 27.4166 29.8333M27.4166 29.8333C19.175 20.7086 15.3333 11.7083 15.3333 11.7083M27.4166 29.8333L28.625 14.125M27.4166 29.8333L15.3333 28.625" stroke="white" stroke-width="1.5" stroke-linecap="round" stroke-linejoin="round"/>
</svg>
