<svg width="21" height="21" viewBox="0 0 21 21" fill="none" xmlns="http://www.w3.org/2000/svg">
<path fill-rule="evenodd" clip-rule="evenodd" d="M3.0983 1.80438C2.14872 1.80438 1.55639 2.65527 1.82766 3.45923C2.80031 6.34184 4.61283 10.6783 7.31592 13.3813L7.31593 13.3813C10.019 16.0844 14.3554 17.8969 17.238 18.8696L17.238 18.8696C18.042 19.1409 18.8929 18.5486 18.8929 17.599V14.6719C18.8929 14.5672 18.8361 14.4707 18.7446 14.4199L18.7446 14.4198L16.195 13.0023C16.1117 12.956 16.011 12.9538 15.9258 12.9964L15.9258 12.9965L13.2068 14.3559C13.0368 14.4409 12.8435 14.4676 12.6568 14.4318L12.8198 13.5819C12.6568 14.4318 12.6565 14.4317 12.6562 14.4317L12.6556 14.4316L12.6543 14.4313L12.6511 14.4307L12.6424 14.4289L12.6163 14.4235C12.5951 14.419 12.5664 14.4126 12.5308 14.4042C12.4596 14.3874 12.3606 14.3623 12.2386 14.3271C11.9949 14.2567 11.6573 14.1455 11.2649 13.9783C10.4835 13.6453 9.46352 13.0813 8.53975 12.1575L8.53974 12.1575C7.61611 11.2339 7.05052 10.2124 6.71598 9.42989C6.54797 9.03689 6.43587 8.69863 6.3649 8.45455C6.32937 8.33232 6.30399 8.23315 6.28698 8.16189C6.27846 8.12624 6.27203 8.09752 6.26746 8.07634L6.26196 8.05025L6.26021 8.04157L6.25957 8.03835L6.25931 8.03702L6.25919 8.03642C6.25913 8.03614 6.25908 8.03587 7.10855 7.87065L6.25908 8.03587C6.22264 7.84851 6.24916 7.65436 6.33452 7.48364L7.69422 4.76425L7.69424 4.7642C7.73679 4.67911 7.73464 4.57846 7.68842 4.4952L6.27708 1.9529C6.22616 1.86119 6.12955 1.80438 6.02486 1.80438H3.0983ZM8.02644 7.96992C8.02658 7.9704 8.02672 7.97088 8.02686 7.97137C8.08131 8.15866 8.17079 8.42994 8.30742 8.74954C8.58217 9.39222 9.03814 10.2082 9.76357 10.9337C9.76357 10.9337 9.76358 10.9337 9.76358 10.9337M9.76358 10.9337C10.4889 11.659 11.303 12.1131 11.9434 12.386C12.2619 12.5218 12.5321 12.6104 12.7185 12.6642C12.7189 12.6643 12.7192 12.6644 12.7196 12.6645L15.1517 11.4484C15.1517 11.4484 15.1518 11.4484 15.1518 11.4484C15.7482 11.1502 16.4533 11.1657 17.036 11.4896L16.6448 12.1932L17.036 11.4896L19.5855 12.9071C20.2264 13.2633 20.6237 13.9389 20.6237 14.6719V17.599C20.6237 19.6305 18.7055 21.1914 16.6847 20.5095C13.7659 19.5247 9.09689 17.61 6.09208 14.6052C3.08722 11.6003 1.17259 6.93137 0.187729 4.01257L0.951676 3.7548L0.187729 4.01257C-0.494113 1.9918 1.06674 0.0736084 3.0983 0.0736084H6.02486C6.75842 0.0736084 7.4342 0.471494 7.79024 1.11271L7.79028 1.11277L9.20166 3.65516L9.20167 3.65518C9.52502 4.23767 9.5403 4.94226 9.24226 5.53828C9.24225 5.53829 9.24225 5.53831 9.24224 5.53833L8.02644 7.96992" fill="#F8B847"/>
</svg>
