<svg width="111" height="60" viewBox="0 0 111 60" fill="none" xmlns="http://www.w3.org/2000/svg">
<g clip-path="url(#clip0_1_63)">
<path fill-rule="evenodd" clip-rule="evenodd" d="M60.5547 26.0262V0H73.1813V1.53861H63.0654C63.0598 4.15763 63.0542 6.77666 63.0486 9.39568H68.9108V10.9343H63.0654V24.4876H73.1813V26.0206H60.5547V26.0262Z" fill="white"/>
<path d="M110.994 0.00561523H108.438V26.0262H110.994V0.00561523Z" fill="white"/>
<path fill-rule="evenodd" clip-rule="evenodd" d="M76.6562 26.0149V0.00561523H79.1614V24.4819H89.2885V26.0149H76.6562Z" fill="white"/>
<path fill-rule="evenodd" clip-rule="evenodd" d="M92.5508 26.0149V0.00561523H95.0559V24.4819H105.183V26.0149H92.5508Z" fill="white"/>
<path fill-rule="evenodd" clip-rule="evenodd" d="M13.0301 26.0263C5.84535 26.0263 0 20.2056 0 13.0217C0 5.1816 7.08391 0.118903 13.0301 0.00576987C16.1686 -0.0564532 18.6457 1.27286 19.9796 2.15529V4.19168C16.7739 2.26843 13.7699 1.49347 11.87 1.52741C10.0654 1.55569 8.6027 2.08741 8.6027 2.08741C8.0927 2.27408 7.59391 2.50601 7.11754 2.78318C4.69646 4.17472 3.04877 6.54485 2.44911 9.45802C1.84384 12.3882 2.38746 15.5106 3.97349 18.2484C6.20403 22.1119 10.1271 24.516 14.2015 24.516C15.8772 24.516 17.452 24.1031 18.8923 23.2998C19.1445 23.1471 19.3351 23.034 19.52 22.9039L19.9627 22.5927V24.0408L19.8282 24.12C19.6153 24.2671 19.3855 24.3802 19.1725 24.5103C17.2895 25.5116 15.171 26.0263 13.0301 26.0263Z" fill="white"/>
<path fill-rule="evenodd" clip-rule="evenodd" d="M41.6289 26.0262V0.00561523H49.1219C53.1179 0.0282418 56.6318 2.73212 57.6854 6.58995C57.8816 7.33097 57.988 8.11724 57.988 8.89786C57.988 9.22594 57.9712 9.55968 57.9264 9.87645C57.7975 11.0248 57.45 12.1335 56.8896 13.1573C55.3092 16.0083 52.3276 17.7788 49.0995 17.7788H44.1957V26.0318H41.6289V26.0262ZM47.7265 16.3703C50.3885 16.3703 52.9105 14.9844 54.2948 12.7613C54.8776 11.845 55.2363 10.8324 55.3596 9.78029C55.3988 9.48615 55.4156 9.192 55.4156 8.8922C55.4156 8.18512 55.3148 7.4837 55.113 6.79924C54.1491 3.62587 51.1115 1.41412 47.7265 1.41412H44.1901V16.3759H47.7265V16.3703Z" fill="white"/>
<path fill-rule="evenodd" clip-rule="evenodd" d="M36.4057 26.0262L30.2578 3.35439L24.1378 26.0262H22.5518L29.5404 0H32.0848L39.0622 26.0262H36.4057Z" fill="white"/>
<path fill-rule="evenodd" clip-rule="evenodd" d="M0 59.9094V33.8832C1.40109 33.7757 3.31218 33.6909 5.57634 33.7701C6.72523 33.8097 8.28325 33.8606 9.8917 34.1095C11.6739 34.3866 14.8852 34.8788 17.6762 36.8247C18.6962 37.5374 23.3758 41.0275 23.4094 46.7577C23.4374 51.6111 20.1141 54.8071 19.2005 55.6896C15.8435 58.9138 11.6907 59.5078 10.1775 59.7284C8.57467 59.9547 6.71963 59.9773 4.64602 60.0056C2.72932 60.0225 1.12648 59.966 0 59.9094ZM18.954 52.9687C19.5088 52.1315 21.2237 49.5464 20.9379 46.0733C20.6745 42.9395 18.9315 40.8578 18.2142 39.998C13.1759 33.9963 3.63163 35.139 2.5668 35.2861V58.5179C9.56665 59.4625 15.9892 57.4318 18.954 52.9687Z" fill="white"/>
<path d="M110.994 33.8833H108.438V59.9095H110.994V33.8833Z" fill="white"/>
<path fill-rule="evenodd" clip-rule="evenodd" d="M88.571 59.8812L82.4062 37.1981L76.2975 59.8812H74.7227L81.6945 33.855H84.2445L91.2219 59.8812H88.571Z" fill="white"/>
<path fill-rule="evenodd" clip-rule="evenodd" d="M39.0626 59.8812C31.8778 59.8812 26.0381 54.0435 26.0381 46.8596C26.0381 39.687 31.8834 33.855 39.0626 33.855C46.2474 33.855 52.0816 39.687 52.0816 46.8596C52.0872 54.0492 46.2474 59.8812 39.0626 59.8812ZM37.9137 35.6877C36.1988 35.6877 34.5903 36.1007 33.1444 36.9096C30.9083 38.1597 29.2998 40.2866 28.6049 42.8434C27.8203 45.8018 28.3191 49.1223 29.9948 51.9449C32.2365 55.7066 36.1484 58.0484 40.2227 58.0484C41.9377 58.0484 43.5349 57.6355 44.992 56.8209C47.217 55.5652 48.831 53.4609 49.5204 50.8928C50.3106 47.9174 49.8062 44.6026 48.1305 41.7743C45.8999 38.0296 41.9713 35.6877 37.9137 35.6877Z" fill="white"/>
<path fill-rule="evenodd" clip-rule="evenodd" d="M68.3112 59.9095L60.4931 52.0128L57.7582 51.9959V59.9095H55.1914V33.8833H62.6956C66.686 33.9003 70.1999 36.5985 71.2479 40.4507C71.4497 41.1917 71.5505 41.9723 71.5505 42.7642C71.5505 43.0923 71.5393 43.4204 71.4889 43.7428C71.3712 44.8968 71.0125 45.9998 70.4465 47.0293C69.0622 49.5296 66.5178 51.2379 63.7044 51.5773L71.8924 59.9039H68.3112V59.9095ZM61.289 50.4516C63.9959 50.4516 66.4506 49.0884 67.8685 46.8031C68.4513 45.8641 68.8044 44.8515 68.9333 43.7768C68.9781 43.4826 69.0006 43.1715 69.0006 42.8717C69.0006 42.1477 68.8885 41.4293 68.6867 40.7561C67.7228 37.5375 64.6852 35.2861 61.2946 35.2861H57.7638V50.4516H61.289Z" fill="white"/>
<path fill-rule="evenodd" clip-rule="evenodd" d="M95.7615 59.9095V35.4163H88.8682V33.8833H105.205V35.4163H98.3227V59.9095H95.7615Z" fill="white"/>
</g>
<defs>
<clipPath id="clip0_1_63">
<rect width="111" height="60" fill="white"/>
</clipPath>
</defs>
</svg>
