<svg width="36" height="36" viewBox="0 0 36 36" fill="none" xmlns="http://www.w3.org/2000/svg">
<path fill-rule="evenodd" clip-rule="evenodd" d="M5.625 7.5C5.625 6.87868 6.12868 6.375 6.75 6.375H29.25C29.8713 6.375 30.375 6.87868 30.375 7.5V33C30.375 33.6213 29.8713 34.125 29.25 34.125H6.75C6.12868 34.125 5.625 33.6213 5.625 33V7.5ZM7.875 8.625V31.875H28.125V8.625H7.875Z" fill="#010001"/>
<path fill-rule="evenodd" clip-rule="evenodd" d="M15 13.875C15.6213 13.875 16.125 14.3787 16.125 15V24.75C16.125 25.3713 15.6213 25.875 15 25.875C14.3787 25.875 13.875 25.3713 13.875 24.75V15C13.875 14.3787 14.3787 13.875 15 13.875Z" fill="#010001"/>
<path fill-rule="evenodd" clip-rule="evenodd" d="M21 13.875C21.6213 13.875 22.125 14.3787 22.125 15V24.75C22.125 25.3713 21.6213 25.875 21 25.875C20.3787 25.875 19.875 25.3713 19.875 24.75V15C19.875 14.3787 20.3787 13.875 21 13.875Z" fill="#010001"/>
<path fill-rule="evenodd" clip-rule="evenodd" d="M1.875 7.5C1.875 6.87868 2.37868 6.375 3 6.375H33C33.6213 6.375 34.125 6.87868 34.125 7.5C34.125 8.12132 33.6213 8.625 33 8.625H3C2.37868 8.625 1.875 8.12132 1.875 7.5Z" fill="#010001"/>
<path fill-rule="evenodd" clip-rule="evenodd" d="M13.4802 2.45923C13.6777 2.09896 14.0559 1.875 14.4667 1.875H21.5828C21.9971 1.875 22.3779 2.10269 22.5739 2.46765L24.9911 6.96765C25.1783 7.3163 25.1687 7.73771 24.9655 8.07738C24.7624 8.41704 24.3958 8.625 24 8.625H12C11.6025 8.625 11.2346 8.41526 11.032 8.07326C10.8295 7.73126 10.8224 7.30777 11.0135 6.95923L13.4802 2.45923ZM15.133 4.125L13.8996 6.375H22.1187L20.9101 4.125H15.133Z" fill="#010001"/>
</svg>
